<svg xmlns="http://www.w3.org/2000/svg" id="&#x56FE;&#x5C42;_1" data-name="&#x56FE;&#x5C42; 1" viewBox="0 0 1047.75 607.8"><defs><style>.cls-1{fill:#1e6aff;}</style></defs><ellipse class="cls-1" cx="284.68" cy="257.07" rx="55.73" ry="11.76"></ellipse><ellipse class="cls-1" cx="284.68" cy="321.88" rx="92.98" ry="11.88"></ellipse><ellipse class="cls-1" cx="284.68" cy="287.68" rx="187.59" ry="10.04"></ellipse><path d="M902.4,323.77a86.49,86.49,0,0,1-25-7.28,54.11,54.11,0,0,0,12.1-12.85c7.6-11.41,8-21.85,8-22.29l.1-3.89H874.41V260.29h26.78v-7.58H874.41v-6h-8.25v6H838.72v7.58h27.44v17.17H842V285h47.32a42,42,0,0,1-6.38,14.75A46.23,46.23,0,0,1,870,312.31a46.5,46.5,0,0,1-12.72-12.38,44.49,44.49,0,0,1-5.44-10.87h-7.94a51.66,51.66,0,0,0,6.86,14.76,54.67,54.67,0,0,0,11.84,12.63,89.67,89.67,0,0,1-25.06,7.31v7.66c12.14-1.73,23.61-5.1,32.44-10,8.84,5,20.33,8.37,32.46,10Z"></path><path d="M826.33,252.71H815v7.58h11.31v28.28L815,290.32v7.58l11.31-1.76V322a1.89,1.89,0,0,1-1.89,1.89H814.35l4.67,7.58h8a7.57,7.57,0,0,0,7.57-7.57V246.67h-8.25Z"></path><polygon points="659.05 246.67 650.81 246.67 648.95 251.64 610.03 251.64 610.03 265.32 618.28 265.32 618.28 259.22 688.48 259.22 688.48 265.32 696.72 265.32 696.72 251.64 657.2 251.64 659.05 246.67"></polygon><rect x="615.99" y="289.71" width="8.25" height="41.75"></rect><path d="M631,276.78h29.39l-2.17,9.44H634.8v45.24h56.89V286.22H666.43l2.16-9.44h26.94V269.2H631ZM643,323.88V312.44h40.41v11.44Zm40.41-19H643V293.8h40.41Z"></path><polygon points="618.02 269.2 607.4 289.71 615.99 289.71 626.61 269.2 618.02 269.2"></polygon><path d="M544.39,321.69a1.9,1.9,0,0,1-1.9,1.9H531l4.67,7.92h8.84A8.51,8.51,0,0,0,553,323V246.67h-8.59Z"></path><polygon points="501.73 316.82 510.36 316.82 529.37 260.67 520.74 260.67 501.73 316.82"></polygon><polygon points="567.99 260.67 587 316.82 595.63 316.82 576.63 260.67 567.99 260.67"></polygon><polygon points="749.88 303.29 749.88 295.52 736.34 288.95 736.34 275.41 749.88 275.41 749.88 267.83 736.34 267.83 736.34 256.48 749.88 255.86 749.88 248.28 712.52 249.99 712.52 257.57 728.09 256.86 728.09 267.83 712.52 267.83 712.52 275.41 728.09 275.41 728.09 331.46 736.34 331.46 736.34 296.73 749.88 303.29"></polygon><polygon points="713.28 331.46 721.2 331.46 724.05 281.97 716.13 281.97 713.28 331.46"></polygon><polygon points="794.33 246.77 786.09 246.77 786.09 312.1 745.91 312.1 750.58 319.68 786.09 319.68 786.09 331.46 794.33 331.46 794.33 319.68 800.73 319.68 800.73 312.1 794.33 312.1 794.33 246.77"></polygon><polygon points="776.93 278.53 766.67 249.65 758.03 249.65 768.29 278.53 776.93 278.53"></polygon><polygon points="769.91 307.4 778.55 307.4 768.29 278.53 759.65 278.53 769.91 307.4"></polygon></svg>